<svg id="Base" xmlns="http://www.w3.org/2000/svg" viewBox="0 0 1781 965"><defs><style>.cls-1{fill:#f93;}.cls-2{fill:#39f;}.cls-3{fill:#9c0;}</style></defs><title>logo</title><rect class="cls-1" x="150.88" y="533.03" width="396.28" height="431.97"/><rect class="cls-1" x="150.88" width="396.28" height="356.19"/><polygon class="cls-1" points="698.04 965 698.04 0 582.16 0 582.16 391.19 115.88 391.19 115.88 0 0 0 0 965 115.88 965 115.88 498.03 582.16 498.03 582.16 965 698.04 965"/><path class="cls-2" d="M1016.35,860.15c42.34-14.27,81.18-37.23,115.44-68.23,35-32,61.66-69.28,79.14-110.87,17.57-41.79,26.48-89.24,26.48-141,0-52.28-8.81-100.15-26.2-142.29-17.29-41.92-43.64-79.51-78.3-111.74-30.9-28.48-69.9-50.23-115.86-64.61-46.76-14.62-102-22-164.27-22H802.54V880.66h50.24C918.36,880.66,973.4,873.76,1016.35,860.15Z" transform="translate(-69.5 -57.5)"/><path class="cls-2" d="M1070.62,995.56l.33-.11c56.51-17.73,111.46-49.87,163.34-95.53,51.53-45.53,90.71-98.8,116.43-158.31,25.79-59.68,38.87-127.51,38.87-201.61S1377,398.42,1352.25,339c-24.68-59.19-62.27-112.07-111.72-157.19-48.81-44.68-103.88-76.74-163.7-95.31l-.46-.15C1020.17,67.21,941.89,57.5,843.71,57.5H802.54V164.34h50.24c65.79,0,124.58,7.95,174.72,23.63,50.94,15.93,94.4,40.26,129.19,72.33,76.81,71.41,115.72,165.5,115.72,279.71,0,113.42-39.39,206.89-117.08,277.82-37.94,34.34-81,59.74-128,75.55l-.29.09C980.68,908.19,922,915.66,852.78,915.66H802.54V1022.5h38.58C940.2,1022.5,1017.42,1013.44,1070.62,995.56Z" transform="translate(-69.5 -57.5)"/><path class="cls-3" d="M1843.43,285.43c-36.21-28.52-73.23-50.53-110.25-65.5-41.18-16.65-83.6-25.1-126.06-25.1-46.91,0-90.64,8.51-130,25.28-38.9,16.59-74.76,41.82-106.6,75q7.54,14.94,14,30.44c26.57,63.71,40,135.87,40,214.47,0,78.9-14,151.41-41.75,215.5q-6.76,15.64-14.66,30.72l1.14,1.19c32.31,32.91,68.68,57.9,108.13,74.29s83.31,24.72,130.28,24.72c48.37,0,89.77-7.85,123.06-23.34l.65-.29c18.85-7.85,38.76-18.67,59.19-32.16,16.64-11,34.24-24,52.49-38.75C1825.28,717.41,1762,631.6,1762,540,1762,443.79,1826,358.83,1843.43,285.43Z" transform="translate(-69.5 -57.5)"/><path class="cls-3" d="M1421,987.75c56.38,23.06,118.57,34.75,184.83,34.75,84.81,0,167.06-21.31,244.63-63.35V830.7c-14,10.79-27.53,20.54-40.58,29.15-22.14,14.62-43.91,26.44-64.69,35.12-37.88,17.55-84.14,26.45-137.5,26.45-100.67,0-187.29-34.9-257.61-103.74a487.78,487.78,0,0,1-66,83.19C1326.08,938.53,1372,967.71,1421,987.75Z" transform="translate(-69.5 -57.5)"/><path class="cls-3" d="M1746.3,187.48c35.08,14.19,70,34.08,104.2,59.31V120.7c-75-41.94-153.49-63.2-233.39-63.2-76.37,0-146.53,14.33-208.53,42.59-43.08,19.64-83.16,46.44-119.74,80a480.65,480.65,0,0,1,64,83.12c69.42-68.59,154.9-103.37,254.27-103.37C1654.1,159.83,1700.93,169.13,1746.3,187.48Z" transform="translate(-69.5 -57.5)"/></svg>